HIERARCHY
ROOT Hips
{
	OFFSET 0.000000 0.000000 0.000000
	CHANNELS 6 Xposition Yposition Zposition Zrotation Yrotation Xrotation 
	JOINT LHipJoint
	{
		OFFSET 0.000000 0.000000 0.000000
		CHANNELS 3 Zrotation Yrotation Xrotation
		JOINT LeftUpLeg
		{
			OFFSET 1.363060 -1.794630 0.839290
			CHANNELS 3 Zrotation Yrotation Xrotation
			JOINT LeftLeg
			{
				OFFSET 2.448110 -6.726130 0.000000
				CHANNELS 3 Zrotation Yrotation Xrotation
				JOINT LeftFoot
				{
					OFFSET 2.562200 -7.039590 0.000000
					CHANNELS 3 Zrotation Yrotation Xrotation
					JOINT LeftToeBase
					{
						OFFSET 0.157640 -0.433110 2.322550
						CHANNELS 3 Zrotation Yrotation Xrotation
						End Site
						{
							OFFSET 0.000000 0.000000 0.000000
						}
					}
				}
			}
		}
	}
	JOINT RHipJoint
	{
		OFFSET 0.000000 0.000000 0.000000
		CHANNELS 3 Zrotation Yrotation Xrotation
		JOINT RightUpLeg
		{
			OFFSET -1.305520 -1.794630 0.839290
			CHANNELS 3 Zrotation Yrotation Xrotation
			JOINT RightLeg
			{
				OFFSET -2.542530 -6.985550 0.000000
				CHANNELS 3 Zrotation Yrotation Xrotation
				JOINT RightFoot
				{
					OFFSET -2.568260 -7.056230 0.000000
					CHANNELS 3 Zrotation Yrotation Xrotation
					JOINT RightToeBase
					{
						OFFSET -0.164730 -0.452590 2.363150
						CHANNELS 3 Zrotation Yrotation Xrotation
						End Site
						{
							OFFSET 0.000000 0.000000 0.000000
						}
					}
				}
			}
		}
	}
	JOINT LowerBack
	{
		OFFSET 0.000000 0.000000 0.000000
		CHANNELS 3 Zrotation Yrotation Xrotation
		JOINT Spine
		{
			OFFSET 0.028270 2.035590 -0.193380
			CHANNELS 3 Zrotation Yrotation Xrotation
			JOINT Spine1
			{
				OFFSET 0.056720 2.048850 -0.042750
				CHANNELS 3 Zrotation Yrotation Xrotation
				JOINT Neck
				{
					OFFSET 0.000000 0.000000 0.000000
					CHANNELS 3 Zrotation Yrotation Xrotation
					JOINT Neck1
					{
						OFFSET -0.054170 1.746240 0.172020
						CHANNELS 3 Zrotation Yrotation Xrotation
						JOINT Head
						{
							OFFSET 0.104070 1.761360 -0.123970
							CHANNELS 3 Zrotation Yrotation Xrotation
							End Site
							{
								OFFSET 0.000000 0.000000 0.000000
							}
						}
					}
				}
				JOINT LeftShoulder
				{
					OFFSET 0.000000 0.000000 0.000000
					CHANNELS 3 Zrotation Yrotation Xrotation
					JOINT LeftArm
					{
						OFFSET 3.362410 1.200890 -0.311210
						CHANNELS 3 Zrotation Yrotation Xrotation
						JOINT LeftForeArm
						{
							OFFSET 4.983000 -0.000000 -0.000000
							CHANNELS 3 Zrotation Yrotation Xrotation
							JOINT LeftHand
							{
								OFFSET 3.483560 -0.000000 -0.000000
								CHANNELS 3 Zrotation Yrotation Xrotation
								JOINT LeftFingerBase
								{
									OFFSET 0.000000 0.000000 0.000000
									CHANNELS 3 Zrotation Yrotation Xrotation
									JOINT LeftHandIndex1
									{
										OFFSET 0.715260 -0.000000 -0.000000
										CHANNELS 3 Zrotation Yrotation Xrotation
										End Site
										{
											OFFSET 0.000000 0.000000 0.000000
										}
									}
								}
								JOINT LThumb
								{
									OFFSET 0.000000 0.000000 0.000000
									CHANNELS 3 Zrotation Yrotation Xrotation
									End Site
									{
										OFFSET 0.000000 0.000000 0.000000
									}
								}
							}
						}
					}
				}
				JOINT RightShoulder
				{
					OFFSET 0.000000 0.000000 0.000000
					CHANNELS 3 Zrotation Yrotation Xrotation
					JOINT RightArm
					{
						OFFSET -3.136600 1.374050 -0.404650
						CHANNELS 3 Zrotation Yrotation Xrotation
						JOINT RightForeArm
						{
							OFFSET -5.241900 -0.000000 -0.000000
							CHANNELS 3 Zrotation Yrotation Xrotation
							JOINT RightHand
							{
								OFFSET -3.444170 -0.000000 -0.000000
								CHANNELS 3 Zrotation Yrotation Xrotation
								JOINT RightFingerBase
								{
									OFFSET 0.000000 0.000000 0.000000
									CHANNELS 3 Zrotation Yrotation Xrotation
									JOINT RightHandIndex1
									{
										OFFSET -0.622530 -0.000000 -0.000000
										CHANNELS 3 Zrotation Yrotation Xrotation
										End Site
										{
											OFFSET 0.000000 0.000000 0.000000
										}
									}
								}
								JOINT RThumb
								{
									OFFSET 0.000000 0.000000 0.000000
									CHANNELS 3 Zrotation Yrotation Xrotation
									End Site
									{
										OFFSET 0.000000 0.000000 0.000000
									}
								}
							}
						}
					}
				}
			}
		}
	}
}
MOTION
Frames: 10
Frame Time: 0.008333
1.855406 17.175297 1.838822 -178.697653 -2.901087 -166.046778 6.320416 0.279924 -1.936940 -25.022893 -13.376463 -10.765231 1.458736 11.601266 30.631855 -2.469101 23.995660 -11.772480 0.042200 1.325500 3.644800 -12.056999 -2.008781 -2.276024 34.329824 13.804606 -12.771600 -1.479829 -12.111238 32.836366 -1.205288 -12.321911 -22.967759 -0.726900 5.447700 -15.189900 -1.365142 1.751508 -3.060076 0.166193 1.777059 -3.667669 -0.292907 0.410079 11.584287 -3.591531 -5.611444 -29.394829 7.701602 -6.727694 9.806879 0.287100 -2.312200 21.261700 15.268017 3.667098 -0.994915 -100.829671 -7.006044 -17.752674 4.193679 -12.313092 -0.647277 0.381366 0.096893 81.330432 2.579654 7.848612 0.340000 -7.125000 0.000000 0.000000 -20.251600 36.723700 4.343800 -16.217525 -0.522117 0.922104 100.875841 3.347660 7.460698 -11.619585 29.102520 -2.613028 0.229395 -2.600469 37.775621 -0.695642 -9.883433 0.344300 7.125000 0.000000 0.000000 20.498400 -37.195800 4.151000 
1.853037 17.174005 1.832468 -178.825029 -2.856440 -166.015625 6.325630 0.281272 -1.939248 -25.164779 -13.347337 -10.752848 1.445156 11.584704 30.571842 -2.444953 23.889152 -11.816779 0.039500 1.283600 3.529400 -12.048292 -1.996891 -2.271603 34.194644 13.894701 -12.805264 -1.502704 -12.147886 32.947607 -1.194389 -12.500404 -22.995413 -0.687100 5.299600 -14.765100 -1.515436 1.681724 -3.054601 0.159927 1.702885 -3.660225 -0.274134 0.360677 11.640910 -3.618420 -5.585275 -29.437478 7.722184 -6.663818 9.806749 0.327000 -2.290900 21.269000 15.230498 3.702817 -0.957982 -100.966197 -7.102273 -13.246580 4.510468 -13.150656 -0.715263 0.377487 0.167825 77.360247 2.345364 7.729286 0.309500 -7.125000 0.000000 0.000000 -20.370500 36.586300 4.444900 -16.192865 -0.566075 0.896494 100.818387 3.769198 8.670597 -11.911200 29.476473 -2.667917 0.252463 -2.583210 37.476681 -0.814245 -9.592368 0.348200 7.125000 0.000000 0.000000 20.331400 -36.947700 4.244500 
1.850668 17.171528 1.827084 -178.979248 -2.841617 -166.019347 6.330794 0.288489 -1.937499 -25.333553 -13.285704 -10.686176 1.427398 11.555341 30.482266 -2.418289 23.763242 -11.789723 0.033700 1.184800 3.257300 -12.033636 -1.988357 -2.271289 34.052459 13.929929 -12.815330 -1.529137 -12.181172 33.064505 -1.189192 -12.698846 -23.097754 -0.691800 5.317300 -14.815800 -1.682898 1.608533 -2.967153 0.147454 1.628295 -3.657058 -0.300780 0.318846 11.632038 -3.530163 -5.523108 -29.429588 7.748741 -6.618051 9.775412 0.329100 -2.256100 21.221300 15.196731 3.726520 -0.942950 -100.994924 -7.414230 -9.259262 4.717822 -13.710983 -0.758970 0.384595 0.217886 73.359720 2.345156 7.794412 0.313400 -7.125000 0.000000 0.000000 -20.366900 36.624200 4.423900 -16.154873 -0.595877 0.885731 100.796638 4.114187 10.107579 -12.345685 30.012479 -2.765883 0.281228 -2.605076 36.689530 -0.850469 -9.619078 0.354500 7.125000 0.000000 0.000000 20.294400 -36.952700 4.233300 
1.848191 17.167436 1.822238 -179.093601 -2.862462 -166.000555 6.334160 0.294460 -1.927816 -25.439265 -13.242544 -10.657522 1.409469 11.525472 30.391868 -2.389223 23.622390 -11.802976 0.028000 1.079600 2.967800 -12.021569 -1.981186 -2.258128 33.957787 13.979437 -12.844755 -1.547258 -12.208095 33.147926 -1.193462 -12.888978 -23.286934 -0.681700 5.278900 -14.705900 -1.784215 1.541732 -2.872694 0.134824 1.551536 -3.684716 -0.348499 0.286950 11.486813 -3.514821 -5.450194 -29.342210 7.752265 -6.575482 9.853658 0.343600 -2.244300 21.310600 15.145896 3.734155 -0.923066 -101.019560 -7.364079 -5.159785 5.141810 -14.608230 -0.841695 0.374128 0.282439 69.660280 2.176953 7.744274 0.293700 -7.125000 0.000000 0.000000 -20.454900 36.551500 4.483900 -16.107650 -0.588706 0.876236 100.747518 4.263482 11.708505 -12.886117 30.653461 -2.896698 0.301375 -2.639355 35.635974 -1.000389 -9.821436 0.382200 7.125000 0.000000 0.000000 20.212900 -37.106600 4.133700 
1.844422 17.161405 1.813730 -179.143410 -2.902665 -166.011123 6.334257 0.302543 -1.922260 -25.483193 -13.188008 -10.571009 1.392919 11.490293 30.299148 -2.364065 23.496030 -11.856949 0.025100 1.022700 2.811200 -12.010036 -1.986040 -2.262569 33.943603 13.899334 -12.835019 -1.563181 -12.222892 33.212550 -1.205474 -12.997162 -23.486248 -0.659400 5.193500 -14.461200 -1.792933 1.500555 -2.849002 0.126294 1.502150 -3.689926 -0.418231 0.269865 11.457815 -3.487677 -5.415286 -29.260716 7.709730 -6.582089 9.895496 0.304800 -2.250800 21.325500 15.113004 3.751471 -0.907895 -101.052607 -7.573268 -1.513634 5.461897 -15.277641 -0.904599 0.371803 0.338321 66.253749 2.022033 7.840686 0.279800 -7.125000 0.000000 0.000000 -20.577100 36.607500 4.483700 -16.068820 -0.617643 0.863435 100.802606 4.547567 12.755870 -13.305030 31.159829 -2.999224 0.320563 -2.652803 35.637218 -1.034179 -9.801199 0.389100 7.125000 0.000000 0.000000 20.161000 -37.091600 4.129900 
1.837853 17.154513 1.804253 -179.166853 -2.971041 -166.046570 6.336351 0.311291 -1.919243 -25.522748 -13.218000 -10.438865 1.382439 11.466671 30.240584 -2.351924 23.441072 -11.940345 0.023500 0.988800 2.718100 -12.002284 -1.991008 -2.283528 33.974970 13.792164 -12.725724 -1.569716 -12.212518 33.223805 -1.210382 -13.200117 -23.681026 -0.606100 4.983400 -13.861200 -1.753854 1.445945 -2.841454 0.121454 1.437522 -3.671808 -0.419475 0.234062 11.548063 -3.662042 -5.495033 -29.228866 7.764841 -6.607363 9.928021 0.419900 -2.286200 21.347700 15.038503 3.804226 -0.881521 -101.129810 -7.796016 2.291651 5.924411 -16.151398 -0.996175 0.375165 0.399743 63.082377 1.830125 8.155813 0.268300 -7.125000 0.000000 0.000000 -20.783600 36.854900 4.399900 -16.020457 -0.647025 0.866619 100.709587 4.833631 14.220350 -13.950744 31.906355 -3.168975 0.372085 -2.708329 34.628563 -0.817840 -10.109779 0.377100 7.125000 0.000000 0.000000 20.374200 -37.325200 4.054600 
1.829668 17.149667 1.798007 -179.162644 -3.047274 -166.022551 6.335811 0.315937 -1.911526 -25.515686 -13.267672 -10.413048 1.375729 11.457429 30.211832 -2.332831 23.358195 -12.111073 0.021000 0.935800 2.572200 -11.994169 -2.002327 -2.298959 34.013615 13.604755 -12.716298 -1.563262 -12.191788 33.181184 -1.203625 -13.376175 -23.745731 -0.581700 4.883700 -13.577000 -1.660243 1.370489 -2.821217 0.124101 1.337214 -3.669943 -0.484320 0.191515 11.578914 -3.677909 -5.467294 -29.252276 7.742829 -6.568996 9.947402 0.426700 -2.279300 21.378300 14.993927 3.834316 -0.866770 -101.201820 -8.073661 5.582227 6.383549 -16.988640 -1.088469 0.350374 0.426705 60.293321 2.012998 7.917766 0.284900 -7.125000 0.000000 0.000000 -20.564600 36.644600 4.460800 -15.977815 -0.686248 0.848576 100.639953 5.245821 15.557074 -14.381654 32.404986 -3.284736 0.367092 -2.714422 33.770210 -1.218094 -10.178894 0.431000 7.125000 0.000000 0.000000 20.083100 -37.380600 3.961600 
1.822776 17.142882 1.787992 -179.086658 -3.123870 -166.021527 6.329915 0.319410 -1.901982 -25.426572 -13.282447 -10.378967 1.378730 11.455794 30.222714 -2.319136 23.294077 -12.287651 0.015200 0.795100 2.185300 -11.996670 -2.016727 -2.307062 34.149633 13.470518 -12.628925 -1.549379 -12.158327 33.102658 -1.222437 -13.451301 -23.970793 -0.553400 4.765400 -13.240800 -1.515466 1.308421 -2.776193 0.139064 1.244103 -3.681801 -0.520886 0.153564 11.587497 -3.628920 -5.343207 -29.498863 7.634940 -6.390964 9.957454 0.356200 -2.213500 21.499700 14.974208 3.837289 -0.865541 -101.330997 -8.317691 8.589639 6.848742 -17.789892 -1.185893 0.345868 0.483342 57.694484 1.811831 8.179098 0.270300 -7.125000 0.000000 0.000000 -20.765300 36.844900 4.401000 -15.902486 -0.720520 0.822418 100.556353 5.551387 16.802669 -14.935327 32.994190 -3.430264 0.388812 -2.728693 33.133647 -1.333989 -10.247419 0.450500 7.125000 0.000000 0.000000 19.999000 -37.433800 3.915700 
1.815453 17.135882 1.778623 -179.039983 -3.254525 -165.994234 6.326521 0.319549 -1.894226 -25.353933 -13.260375 -10.419373 1.384810 11.463907 30.255534 -2.285145 23.130967 -12.483523 0.012500 0.721200 1.981900 -11.999012 -2.026291 -2.306229 34.243117 13.410883 -12.549553 -1.530139 -12.122040 33.005594 -1.225179 -13.637899 -24.132218 -0.554500 4.769800 -13.253300 -1.369485 1.241943 -2.722506 0.148803 1.144124 -3.703095 -0.612284 0.124188 11.475406 -3.532236 -5.248912 -29.386813 7.539748 -6.330719 9.893645 0.252900 -2.190600 21.378900 14.958118 3.818316 -0.856330 -101.393694 -8.544887 11.226890 7.312587 -18.556411 -1.284364 0.329878 0.515665 55.808965 1.789702 8.176442 0.269200 -7.125000 0.000000 0.000000 -20.764900 36.830900 4.408500 -15.833380 -0.747873 0.806919 100.538443 5.803444 17.804130 -15.441533 33.527360 -3.559391 0.421220 -2.734544 32.909107 -1.301900 -10.157656 0.444600 7.125000 0.000000 0.000000 19.984400 -37.354100 3.953800 
1.808884 17.126621 1.773454 -178.998079 -3.370860 -165.974230 6.323046 0.316778 -1.892028 -25.284401 -13.275777 -10.459436 1.393996 11.479680 30.305155 -2.268731 23.051482 -12.585317 0.007300 0.552100 1.517200 -12.006054 -2.033036 -2.309202 34.338106 13.376531 -12.479246 -1.510113 -12.087827 32.905452 -1.240752 -13.790241 -24.389769 -0.560300 4.794400 -13.323000 -1.275653 1.188985 -2.702722 0.164515 1.064003 -3.707734 -0.603755 0.090291 11.439042 -3.503758 -5.130826 -29.251991 7.493659 -6.194073 9.861217 0.225700 -2.147100 21.268400 14.945201 3.816445 -0.855287 -101.547516 -8.958555 13.603344 7.664421 -19.146824 -1.360595 0.325718 0.524129 53.958599 2.154765 8.164357 0.315600 -7.125000 0.000000 0.000000 -20.472900 36.834700 4.337500 -15.748258 -0.780949 0.810268 100.396644 5.987187 19.098333 -16.057352 34.155206 -3.734577 0.430290 -2.748566 31.950757 -1.577801 -10.337368 0.489100 7.125000 0.000000 0.000000 19.813200 -37.504300 3.839400 
